# xmcd
#
# Track frame offsets:
#	150
#	20053
#	37249
#	54461
#	77661
#	96254
#	115460
#	137921
#	150541
#	167401
#	182804
#	209752
#	226243
#	241526
#	257354
#	273299
#	289112
#
# Disc length: 4064
#
# Revision: 1
# Processed by: cddbd v1.5.1PL0 Copyright (c) Steve Scherf et al.
# Submitted via: ExactAudioCopy v0.90b4
# Normalized: r0:DSETVAR1
#
DISCID=ea0fde11
DTITLE=Various Artist - Oriflame Love Songs
DYEAR=2003
DGENRE=Easy Listening
TTITLE0=Dave Stewart - Lily Was Here
TTITLE1=S. Wonder - Isn't She Love Me
TTITLE2=Neil Diamond - Rhone - Acapulco
TTITLE3=Kenny G. - Silhoette
TTITLE4=Mandel - Webster - The Shadow Of Your Smile
TTITLE5=Sade - St. John - Smooth Operator
TTITLE6=Han - Evans - Without You
TTITLE7=Calvin - Il Bimbo
TTITLE8=A. Robles - Condor Pasa
TTITLE9=Bachelet - Limiti - Piccareda - Roy - Emmanuelle
TTITLE10=Francis Lai - Love Story
TTITLE11=George Gershwin - Summertime
TTITLE12=Cosma - Prevert - Autumn Leaves
TTITLE13=V. Pallavicini, Losito, T. Cutugno - C. Lemesle, P. Delanoe - L`ete Indien
TTITLE14=Wilsh, Deighan - P. Delanoe - Champs Elysee
TTITLE15=North - Zaret - Unchained Melody
TTITLE16=R. Chojnacki - Sax and Sex
EXTD=Performed by\nThe Smooth Ballroom Band - Jack Fred With Band;\nBogacy Edward - saxophone - Cykun Siergiej - keybords\n
EXTT0=
EXTT1=
EXTT2=
EXTT3=
EXTT4=
EXTT5=
EXTT6=
EXTT7=
EXTT8=
EXTT9=
EXTT10=
EXTT11=
EXTT12=
EXTT13=
EXTT14=
EXTT15=
EXTT16=
PLAYORDER=
